<svg width="48" height="53" viewBox="0 0 48 53" fill="none" xmlns="http://www.w3.org/2000/svg">
<path d="M21.3333 52.6V28.2L0 15.8667V37.2667C0 38.2444 0.233333 39.1333 0.7 39.9333C1.16667 40.7333 1.82222 41.3778 2.66667 41.8667L21.3333 52.6ZM26.6667 52.6L45.3333 41.8667C46.1778 41.3778 46.8333 40.7333 47.3 39.9333C47.7667 39.1333 48 38.2444 48 37.2667V15.8667L26.6667 28.2V52.6ZM37.2667 15.9333L45.1333 11.3333L26.6667 0.733333C25.8222 0.244444 24.9333 0 24 0C23.0667 0 22.1778 0.244444 21.3333 0.733333L16.0667 3.73333L37.2667 15.9333ZM24 23.6L31.9333 19.0667L10.8 6.8L2.8 11.4L24 23.6Z" fill="#0058BC"/>
</svg>
